<svg width="118" height="75" viewBox="0 0 118 75" fill="none" xmlns="http://www.w3.org/2000/svg">
<path d="M36.225 38.8125C38.3686 38.8125 40.1063 37.0748 40.1063 34.9312C40.1063 32.7877 38.3686 31.05 36.225 31.05C34.0814 31.05 32.3438 32.7877 32.3438 34.9312C32.3438 37.0748 34.0814 38.8125 36.225 38.8125Z" fill="#0E1F2F"/>
<path d="M41.6587 23.2875H37.5187C35.9662 16.3013 29.2387 11.6438 22.2525 13.1963C17.0775 14.2313 12.9375 18.1125 11.9025 23.2875H10.0912C7.50374 23.2875 5.17499 25.6163 5.17499 28.2038V31.5675C5.17499 33.3787 6.72749 34.9313 8.53874 34.9313H9.31499C9.31499 31.5675 12.1612 28.7213 15.525 28.7213C18.8887 28.7213 21.735 31.5675 21.735 34.9313H30.015C30.015 31.5675 32.8612 28.7213 36.225 28.7213C39.5887 28.7213 42.435 31.5675 42.435 34.9313H43.2112C45.0225 34.9313 46.575 33.3787 46.575 31.5675V28.4625C46.575 25.6163 44.2462 23.2875 41.6587 23.2875ZM16.0425 23.2875C17.3362 18.3713 22.5112 15.7838 27.1687 17.0775C30.015 17.8538 32.3437 20.1825 33.3787 23.2875H16.0425ZM15.525 31.05C13.455 31.05 11.6437 32.8613 11.6437 34.9313C11.6437 37.0013 13.455 38.8125 15.525 38.8125C17.595 38.8125 19.4062 37.0013 19.4062 34.9313C19.4062 32.8613 17.595 31.05 15.525 31.05Z" fill="#0E1F2F"/>
<rect x="5" y="42" width="100" height="6" fill="#0E1F2F"/>
<path d="M12.125 74.3125C10.9688 74.3125 9.92708 74.026 9 73.4531C8.0625 72.8802 7.30729 72.1094 6.73438 71.1406C6.17188 70.1719 5.89062 69.0885 5.89062 67.8906V57.75C5.89062 56.5833 6.17708 55.5208 6.75 54.5625C7.3125 53.5938 8.06771 52.8229 9.01562 52.25C9.96354 51.6667 11 51.375 12.125 51.375C13.3021 51.375 14.3646 51.6562 15.3125 52.2188C16.2604 52.7917 17.0104 53.5573 17.5625 54.5156C18.125 55.474 18.4062 56.5521 18.4062 57.75V59.2188C18.4062 59.3021 18.3542 59.3438 18.25 59.3438H14.6562C14.5729 59.3438 14.5312 59.3021 14.5312 59.2188V58C14.5312 57.1875 14.3021 56.5156 13.8438 55.9844C13.3854 55.4531 12.8125 55.1875 12.125 55.1875C11.5104 55.1875 10.9635 55.4427 10.4844 55.9531C10.0052 56.4635 9.76562 57.0625 9.76562 57.75V67.8906C9.76562 68.5885 10 69.1927 10.4688 69.7031C10.9375 70.2031 11.4896 70.4531 12.125 70.4531C12.8125 70.4531 13.3854 70.2083 13.8438 69.7188C14.3021 69.2188 14.5312 68.6094 14.5312 67.8906V66.3125H12.2969C12.1823 66.3125 12.125 66.2604 12.125 66.1562V62.5781C12.125 62.474 12.1823 62.4219 12.2969 62.4219H18.2812C18.3646 62.4219 18.4062 62.474 18.4062 62.5781V67.8906C18.4062 69.0885 18.125 70.1719 17.5625 71.1406C16.9896 72.1094 16.2344 72.8802 15.2969 73.4531C14.3594 74.026 13.3021 74.3125 12.125 74.3125ZM19.5938 73.8438L23.5625 51.8594C23.5833 51.776 23.6354 51.7344 23.7188 51.7344H28.3594C28.4427 51.7344 28.4948 51.776 28.5156 51.8594L32.3281 73.8438C32.3385 73.9479 32.2969 74 32.2031 74H28.6562C28.5521 74 28.4948 73.9479 28.4844 73.8438L28.1406 71.5H23.7812L23.4375 73.8438C23.4271 73.9479 23.375 74 23.2812 74H19.7188C19.6354 74 19.5938 73.9479 19.5938 73.8438ZM25.8594 59.0938L24.4219 68.0781H27.5L26.1875 59.0938L26 57.9062L25.8594 59.0938ZM38.0781 74H34.4531C34.3698 74 34.3281 73.9479 34.3281 73.8438L34.3906 51.8594C34.3906 51.776 34.4323 51.7344 34.5156 51.7344H40.9844C42.1406 51.7344 43.2031 52.0156 44.1719 52.5781C45.1406 53.1406 45.9115 53.8958 46.4844 54.8438C47.0677 55.7917 47.3594 56.8646 47.3594 58.0625C47.3594 58.8438 47.2396 59.5521 47 60.1875C46.7604 60.8229 46.4792 61.3594 46.1562 61.7969C45.8438 62.2344 45.5573 62.5573 45.2969 62.7656C46.4531 64.0469 47.0312 65.5521 47.0312 67.2812L47.0625 73.8438C47.0625 73.9479 47.0104 74 46.9062 74H43.2812C43.1979 74 43.1562 73.9688 43.1562 73.9062V67.2812C43.1562 66.5104 42.8854 65.8438 42.3438 65.2812C41.8021 64.7188 41.1354 64.4375 40.3438 64.4375H38.2344L38.2031 73.8438C38.2031 73.9479 38.1615 74 38.0781 74ZM40.9844 55.5625H38.2344V60.5938H40.9844C41.6406 60.5938 42.224 60.349 42.7344 59.8594C43.2552 59.3698 43.5156 58.7708 43.5156 58.0625C43.5156 57.3854 43.2656 56.8021 42.7656 56.3125C42.2656 55.8125 41.6719 55.5625 40.9844 55.5625ZM48.0312 73.8438L52 51.8594C52.0208 51.776 52.0729 51.7344 52.1562 51.7344H56.7969C56.8802 51.7344 56.9323 51.776 56.9531 51.8594L60.7656 73.8438C60.776 73.9479 60.7344 74 60.6406 74H57.0938C56.9896 74 56.9323 73.9479 56.9219 73.8438L56.5781 71.5H52.2188L51.875 73.8438C51.8646 73.9479 51.8125 74 51.7188 74H48.1562C48.0729 74 48.0312 73.9479 48.0312 73.8438ZM54.2969 59.0938L52.8594 68.0781H55.9375L54.625 59.0938L54.4375 57.9062L54.2969 59.0938ZM68.625 74.3125C67.4688 74.3125 66.4271 74.026 65.5 73.4531C64.5625 72.8802 63.8073 72.1094 63.2344 71.1406C62.6719 70.1719 62.3906 69.0885 62.3906 67.8906V57.75C62.3906 56.5833 62.6771 55.5208 63.25 54.5625C63.8125 53.5938 64.5677 52.8229 65.5156 52.25C66.4635 51.6667 67.5 51.375 68.625 51.375C69.8021 51.375 70.8646 51.6562 71.8125 52.2188C72.7604 52.7917 73.5104 53.5573 74.0625 54.5156C74.625 55.474 74.9062 56.5521 74.9062 57.75V59.2188C74.9062 59.3021 74.8542 59.3438 74.75 59.3438H71.1562C71.0729 59.3438 71.0312 59.3021 71.0312 59.2188V58C71.0312 57.1875 70.8021 56.5156 70.3438 55.9844C69.8854 55.4531 69.3125 55.1875 68.625 55.1875C68.0104 55.1875 67.4635 55.4427 66.9844 55.9531C66.5052 56.4635 66.2656 57.0625 66.2656 57.75V67.8906C66.2656 68.5885 66.5 69.1927 66.9688 69.7031C67.4375 70.2031 67.9896 70.4531 68.625 70.4531C69.3125 70.4531 69.8854 70.2083 70.3438 69.7188C70.8021 69.2188 71.0312 68.6094 71.0312 67.8906V66.3125H68.7969C68.6823 66.3125 68.625 66.2604 68.625 66.1562V62.5781C68.625 62.474 68.6823 62.4219 68.7969 62.4219H74.7812C74.8646 62.4219 74.9062 62.474 74.9062 62.5781V67.8906C74.9062 69.0885 74.625 70.1719 74.0625 71.1406C73.4896 72.1094 72.7344 72.8802 71.7969 73.4531C70.8594 74.026 69.8021 74.3125 68.625 74.3125ZM87.6406 74H77.2969C77.2135 74 77.1719 73.9479 77.1719 73.8438L77.2031 51.8594C77.2031 51.776 77.2448 51.7344 77.3281 51.7344H87.6094C87.6927 51.7344 87.7344 51.7865 87.7344 51.8906V55.4688C87.7344 55.5521 87.6927 55.5938 87.6094 55.5938H81.0469V60.5938H87.6094C87.6927 60.5938 87.7344 60.6354 87.7344 60.7188L87.7656 64.3438C87.7656 64.4271 87.724 64.4688 87.6406 64.4688H81.0469V70.0625H87.6406C87.724 70.0625 87.7656 70.1146 87.7656 70.2188V73.875C87.7656 73.9583 87.724 74 87.6406 74ZM94.3594 74H90.7344C90.651 74 90.6094 73.9479 90.6094 73.8438L90.6719 51.8594C90.6719 51.776 90.7135 51.7344 90.7969 51.7344H97.2656C98.4219 51.7344 99.4844 52.0156 100.453 52.5781C101.422 53.1406 102.193 53.8958 102.766 54.8438C103.349 55.7917 103.641 56.8646 103.641 58.0625C103.641 58.8438 103.521 59.5521 103.281 60.1875C103.042 60.8229 102.76 61.3594 102.438 61.7969C102.125 62.2344 101.839 62.5573 101.578 62.7656C102.734 64.0469 103.312 65.5521 103.312 67.2812L103.344 73.8438C103.344 73.9479 103.292 74 103.188 74H99.5625C99.4792 74 99.4375 73.9688 99.4375 73.9062V67.2812C99.4375 66.5104 99.1667 65.8438 98.625 65.2812C98.0833 64.7188 97.4167 64.4375 96.625 64.4375H94.5156L94.4844 73.8438C94.4844 73.9479 94.4427 74 94.3594 74ZM97.2656 55.5625H94.5156V60.5938H97.2656C97.9219 60.5938 98.5052 60.349 99.0156 59.8594C99.5365 59.3698 99.7969 58.7708 99.7969 58.0625C99.7969 57.3854 99.5469 56.8021 99.0469 56.3125C98.5469 55.8125 97.9531 55.5625 97.2656 55.5625Z" fill="#0E1F2F"/>
</svg>
