<svg width="8" height="5" viewBox="0 0 8 5" fill="none" xmlns="http://www.w3.org/2000/svg">
<path d="M0.220011 4.53007C0.360637 4.67052 0.551261 4.74941 0.750011 4.74941C0.948762 4.74941 1.13939 4.67052 1.28001 4.53007L4.00001 1.81007L6.72001 4.53007C6.86219 4.66255 7.05023 4.73468 7.24453 4.73125C7.43883 4.72782 7.62422 4.64911 7.76163 4.51169C7.89905 4.37428 7.97776 4.1889 7.98119 3.9946C7.98462 3.80029 7.91249 3.61225 7.78001 3.47007L4.53001 0.220073C4.38939 0.079622 4.19876 0.000732422 4.00001 0.000732422C3.80126 0.000732422 3.61064 0.079622 3.47001 0.220073L0.220011 3.47007C0.079561 3.6107 0.000671387 3.80132 0.000671387 4.00007C0.000671387 4.19882 0.079561 4.38945 0.220011 4.53007Z" fill="black"/>
</svg>
