<svg width="20" height="20" viewBox="0 0 20 20" fill="none" xmlns="http://www.w3.org/2000/svg">
<path d="M10 13.5C9.07175 13.5 8.18151 13.1313 7.52513 12.4749C6.86876 11.8185 6.50001 10.9283 6.50001 10C6.50001 9.07174 6.86876 8.18151 7.52513 7.52513C8.18151 6.86875 9.07175 6.5 10 6.5C10.9283 6.5 11.8185 6.86875 12.4749 7.52513C13.1313 8.18151 13.5 9.07174 13.5 10C13.5 10.9283 13.1313 11.8185 12.4749 12.4749C11.8185 13.1313 10.9283 13.5 10 13.5ZM17.43 10.97C17.47 10.65 17.5 10.33 17.5 10C17.5 9.67 17.47 9.34 17.43 9L19.54 7.37C19.73 7.22 19.78 6.95 19.66 6.73L17.66 3.27C17.54 3.05 17.27 2.96 17.05 3.05L14.56 4.05C14.04 3.66 13.5 3.32 12.87 3.07L12.5 0.420002C12.4797 0.302219 12.4183 0.195429 12.3268 0.118553C12.2353 0.0416778 12.1195 -0.000319774 12 1.83347e-06H8.00001C7.75001 1.83347e-06 7.54001 0.180002 7.50001 0.420002L7.13001 3.07C6.50001 3.32 5.96001 3.66 5.44001 4.05L2.95001 3.05C2.73001 2.96 2.46001 3.05 2.34001 3.27L0.340007 6.73C0.210007 6.95 0.270007 7.22 0.460007 7.37L2.57001 9C2.53001 9.34 2.50001 9.67 2.50001 10C2.50001 10.33 2.53001 10.65 2.57001 10.97L0.460007 12.63C0.270007 12.78 0.210007 13.05 0.340007 13.27L2.34001 16.73C2.46001 16.95 2.73001 17.03 2.95001 16.95L5.44001 15.94C5.96001 16.34 6.50001 16.68 7.13001 16.93L7.50001 19.58C7.54001 19.82 7.75001 20 8.00001 20H12C12.25 20 12.46 19.82 12.5 19.58L12.87 16.93C13.5 16.67 14.04 16.34 14.56 15.94L17.05 16.95C17.27 17.03 17.54 16.95 17.66 16.73L19.66 13.27C19.78 13.05 19.73 12.78 19.54 12.63L17.43 10.97Z" fill="black"/>
</svg>
